<?xml version="1.0" standalone="no"?>
<!DOCTYPE svg PUBLIC "-//W3C//DTD SVG 20010904//EN"
 "http://www.w3.org/TR/2001/REC-SVG-20010904/DTD/svg10.dtd">
<svg version="1.0" xmlns="http://www.w3.org/2000/svg"
 width="1032.000000pt" height="15271.000000pt" viewBox="0 0 1032.000000 15271.000000"
 preserveAspectRatio="xMidYMid meet">
<metadata>
Created by potrace 1.15, written by Peter Selinger 2001-2017
</metadata>
<g transform="translate(0.000000,15271.000000) scale(0.100000,-0.100000)"
fill="#000000" stroke="none">
<path d="M9342 152285 c-1 -91 2 -135 10 -143 9 -9 96 -12 328 -12 232 0 319
3 328 12 8 8 11 52 10 143 -1 71 -3 106 -5 78 l-4 -53 -65 0 -64 0 0 -35 c0
-34 -13 -47 -23 -22 -4 10 -6 10 -6 0 -1 -7 -8 -13 -16 -13 -10 0 -15 11 -15
35 0 26 -3 33 -15 29 -9 -4 -15 -19 -15 -35 0 -16 -4 -29 -10 -29 -5 0 -10 13
-10 29 0 16 -6 31 -15 35 -12 4 -15 -3 -15 -29 0 -34 -13 -47 -23 -22 -4 10
-6 10 -6 0 -1 -7 -8 -13 -16 -13 -10 0 -15 11 -15 35 0 19 -4 35 -10 35 -5 0
-10 -16 -10 -35 0 -19 -4 -35 -10 -35 -5 0 -10 16 -10 35 0 19 -4 35 -10 35
-5 0 -10 -16 -10 -35 0 -32 -2 -35 -29 -35 -27 0 -30 3 -33 38 l-3 37 -20 -37
c-11 -24 -26 -38 -38 -38 -13 0 -17 5 -12 19 12 40 -3 51 -71 51 l-63 0 -4 53
c-2 28 -4 -7 -5 -78z"/>
<path d="M484 152338 c-80 -38 -26 -154 58 -126 52 18 54 103 2 127 -29 13
-32 13 -60 -1z"/>
<path d="M786 152322 c-22 -25 -20 -75 4 -97 14 -13 29 -16 55 -12 29 5 35 3
35 -12 0 -36 -51 -56 -78 -29 -6 6 -15 8 -19 4 -11 -11 27 -36 54 -36 46 0 63
32 63 118 l0 78 -49 2 c-36 1 -52 -3 -65 -16z"/>
<path d="M1734 151806 c-3 -7 -4 -31 -2 -52 l3 -39 90 0 90 0 0 50 0 50 -88 3
c-69 2 -89 0 -93 -12z"/>
<path d="M2190 151505 c0 -13 71 -15 580 -15 509 0 580 2 580 15 0 13 -71 15
-580 15 -509 0 -580 -2 -580 -15z"/>
<path d="M621 150355 c-181 -40 -339 -184 -394 -359 -21 -69 -22 -83 -22 -521
0 -404 2 -456 18 -508 18 -58 57 -133 57 -110 0 7 10 18 23 24 18 9 20 9 9 -2
-6 -7 -12 -21 -12 -32 0 -10 -4 -15 -10 -12 -6 3 -7 -1 -4 -9 9 -24 24 -19 24
7 0 21 4 23 44 21 24 -1 49 -5 55 -8 6 -4 15 -5 20 -1 5 3 17 -2 26 -11 15
-15 15 -14 11 8 -2 13 -18 46 -35 72 -50 80 -53 112 -49 581 l3 430 29 59 c37
76 96 135 172 172 l59 29 425 3 c290 2 441 0 477 -8 113 -24 223 -129 258
-245 21 -71 22 -866 1 -936 -14 -46 -50 -111 -78 -140 -36 -38 -37 -50 -2 -16
41 38 53 39 55 3 0 -12 3 -15 6 -8 3 8 28 12 72 12 l67 0 21 43 c46 96 48 118
48 582 0 469 -2 490 -51 590 -60 124 -185 234 -312 277 -65 22 -82 22 -507 25
-351 2 -453 -1 -504 -12z"/>
<path d="M2442 150269 c-75 -9 -154 -44 -205 -89 l-37 -32 0 -482 0 -483 45 7
c30 5 45 3 45 -4 0 -6 4 -5 9 3 7 11 10 10 13 -5 2 -10 7 118 10 286 5 272 8
312 27 371 35 111 113 183 236 215 64 18 588 19 667 3 114 -25 187 -81 235
-184 l28 -60 0 -345 0 -345 -28 -61 c-46 -98 -120 -158 -232 -185 -55 -14 -80
-29 -49 -29 34 0 104 -89 128 -164 6 -17 14 -18 74 -13 82 7 147 34 201 82
l41 37 0 678 0 678 -41 37 c-55 49 -112 73 -201 85 -88 11 -877 11 -966 -1z"/>
<path d="M1511 150027 c-49 -29 -67 -110 -35 -156 22 -31 77 -53 112 -45 83
20 115 132 52 189 -25 23 -98 29 -129 12z"/>
<path d="M2603 149949 c-25 -6 -59 -26 -87 -50 -70 -62 -76 -92 -76 -403 0
-258 4 -306 21 -306 5 0 7 11 4 23 -4 16 -2 24 7 25 7 1 37 8 67 16 47 14 56
14 74 1 16 -11 24 -12 36 -2 11 9 13 9 8 0 -8 -13 30 -39 52 -34 7 1 10 -2 6
-8 -6 -10 8 -16 29 -12 5 1 16 -5 25 -12 22 -20 97 -57 115 -57 17 0 89 -40
94 -52 2 -4 8 -8 14 -8 17 0 47 -44 48 -68 l0 -24 103 7 c146 10 194 35 240
120 21 38 22 55 25 333 4 349 -1 384 -61 447 -67 69 -101 75 -426 74 -152 -1
-295 -5 -318 -10z m692 -109 c42 -46 10 -120 -52 -120 -42 0 -73 30 -73 70 0
62 84 95 125 50z m-262 -80 c70 -26 125 -75 162 -141 27 -49 30 -62 30 -149 0
-86 -3 -100 -29 -148 -57 -103 -159 -164 -277 -166 -38 -1 -69 2 -69 6 0 4 -8
8 -17 8 -10 0 -33 9 -51 20 -18 11 -38 17 -44 14 -6 -4 -9 -3 -5 2 3 5 -11 25
-30 44 -157 158 -97 428 114 510 64 25 149 25 216 0z"/>
<path d="M2857 149655 c-135 -48 -172 -236 -65 -331 29 -26 99 -54 136 -54 33
0 121 40 144 66 27 31 48 90 48 136 -1 138 -133 230 -263 183z"/>
<path d="M958 149911 c-146 -47 -261 -166 -303 -315 -13 -43 -16 -84 -13 -150
3 -80 8 -101 40 -166 62 -131 150 -208 282 -249 215 -66 448 34 551 238 67
133 58 315 -22 445 -57 93 -157 169 -262 200 -73 21 -200 20 -273 -3z m269
-187 c169 -80 211 -316 80 -452 -57 -59 -121 -86 -207 -85 -89 0 -133 17 -195
74 -138 127 -112 359 50 455 84 48 180 51 272 8z"/>
<path d="M677 147819 c-91 -21 -208 -103 -261 -183 -19 -29 -44 -80 -55 -114
-20 -58 -21 -83 -21 -434 0 -227 4 -389 11 -413 16 -65 31 -95 41 -89 5 3 8 0
7 -7 -1 -8 3 -25 9 -39 11 -24 12 -24 9 9 -1 21 3 36 11 38 9 4 11 -3 8 -21
-3 -14 0 -29 6 -32 7 -5 8 -2 3 6 -6 10 4 12 48 8 31 -2 54 -1 51 4 -3 4 -1 8
5 8 5 0 15 -8 20 -17 6 -10 11 -13 11 -7 0 6 -11 21 -24 33 -13 13 -35 46 -47
74 -22 51 -22 58 -20 422 1 204 6 386 11 406 14 51 64 122 108 152 90 63 83
62 487 62 404 0 397 1 487 -62 44 -30 94 -101 108 -152 5 -20 10 -202 12 -406
l2 -370 -31 -67 c-17 -36 -29 -69 -26 -72 3 -3 15 0 27 6 11 6 18 7 13 3 -4
-5 7 -15 24 -22 36 -15 52 -17 45 -4 -7 10 14 30 29 28 9 -2 14 7 47 77 10 23
13 117 13 441 l0 411 -38 77 c-43 88 -110 159 -187 201 -98 53 -123 56 -530
55 -206 -1 -392 -5 -413 -10z"/>
<path d="M2449 147737 c-73 -31 -121 -69 -158 -124 -61 -92 -62 -99 -59 -554
l3 -414 26 -56 c34 -72 96 -134 168 -168 l56 -26 430 0 430 0 56 26 c72 34
134 96 168 168 l26 56 0 430 0 430 -26 56 c-34 72 -96 134 -168 168 l-56 26
-420 2 c-419 3 -420 3 -476 -20z m919 -101 c58 -29 85 -58 111 -116 20 -43 21
-64 21 -448 0 -390 -1 -404 -21 -445 -29 -58 -56 -85 -111 -113 l-47 -24 -406
0 -406 0 -47 24 c-55 28 -82 55 -111 113 -20 41 -21 55 -21 445 0 402 0 403
24 453 26 56 53 83 111 113 38 20 55 21 448 22 l408 0 47 -24z"/>
<path d="M3283 147562 c-12 -2 -34 -17 -48 -33 -76 -91 47 -212 134 -131 29
26 35 42 32 88 -2 47 -62 85 -118 76z"/>
<path d="M2829 147407 c-103 -29 -181 -97 -228 -197 -20 -44 -25 -70 -26 -135
0 -71 4 -88 33 -147 38 -77 92 -130 171 -166 46 -22 71 -26 136 -26 65 0 90 4
136 26 79 36 133 89 171 166 29 59 33 76 33 147 -1 93 -28 165 -90 234 -77 85
-227 129 -336 98z m187 -111 c191 -89 191 -351 -1 -442 -124 -59 -269 -2 -325
128 -86 201 127 407 326 314z"/>
<path d="M1463 147553 c-31 -6 -63 -50 -63 -85 0 -42 17 -68 56 -84 80 -33
154 51 113 128 -9 16 -71 52 -81 47 -2 -1 -13 -4 -25 -6z"/>
<path d="M1036 147458 c-125 -16 -234 -97 -292 -213 -27 -55 -29 -69 -29 -170
0 -104 2 -113 32 -170 64 -123 179 -201 311 -212 117 -10 216 23 299 100 85
79 124 167 124 282 0 245 -199 416 -445 383z m178 -176 c194 -105 150 -394
-67 -443 -173 -38 -333 122 -288 291 17 65 54 115 107 146 86 51 162 52 248 6z"/>
<path d="M542 145550 c-116 -24 -223 -105 -268 -204 -13 -29 -29 -86 -34 -127
-11 -85 -13 -577 -3 -757 6 -114 7 -120 25 -111 10 5 18 16 18 24 0 8 8 15 18
15 10 0 22 3 25 6 4 4 22 8 41 10 25 2 38 -2 46 -14 8 -14 11 -14 18 -4 6 9
11 2 14 -25 3 -21 13 -54 22 -73 16 -35 16 -27 -4 50 -12 46 -12 564 0 656 13
105 44 176 98 232 99 101 155 112 552 112 332 0 369 -4 460 -50 76 -39 138
-118 167 -215 15 -52 18 -100 18 -375 0 -234 -4 -329 -14 -370 -41 -165 -155
-262 -338 -289 -32 -5 -49 -10 -38 -11 11 -1 26 -2 33 -1 22 3 79 -41 96 -74
9 -16 27 -49 40 -72 14 -22 22 -44 18 -48 -4 -4 28 -5 70 -2 172 14 293 113
332 272 18 74 30 861 16 1050 -11 144 -26 192 -85 267 -35 45 -60 64 -121 95
l-78 38 -550 2 c-303 1 -570 -3 -594 -7z"/>
<path d="M2412 145395 c-75 -23 -134 -76 -180 -160 l-27 -50 0 -495 0 -495 24
-45 c32 -61 86 -116 146 -148 l50 -27 495 0 495 0 50 27 c60 32 114 87 146
148 l24 45 0 495 0 495 -27 50 c-32 60 -87 114 -148 146 l-45 24 -480 2 c-380
2 -489 -1 -523 -12z m848 -196 c70 -33 136 -99 169 -169 l26 -55 0 -285 0
-285 -26 -55 c-33 -70 -99 -136 -169 -169 l-55 -26 -285 0 -285 0 -55 26 c-70
33 -136 99 -169 169 l-26 55 0 285 0 285 26 55 c44 93 132 166 226 189 21 6
157 9 303 8 263 -2 265 -2 320 -28z"/>
<path d="M2615 145111 c-22 -10 -54 -34 -72 -52 -60 -63 -63 -81 -63 -369 0
-288 3 -306 63 -369 64 -67 82 -71 375 -71 290 0 307 3 371 63 67 64 71 81 71
377 0 296 -4 313 -71 377 -64 60 -81 63 -371 63 -235 0 -267 -2 -303 -19z
m385 -167 c101 -30 190 -149 190 -254 0 -135 -135 -270 -270 -270 -135 0 -270
135 -270 270 0 134 130 266 266 269 17 1 54 -6 84 -15z"/>
<path d="M2845 144846 c-42 -18 -83 -69 -91 -112 -9 -50 1 -113 23 -143 40
-52 70 -66 143 -66 74 0 103 14 144 69 17 21 21 42 21 96 0 74 -14 103 -68
144 -34 25 -129 32 -172 12z"/>
<path d="M865 145220 c-60 -4 -126 -14 -146 -22 -53 -23 -105 -80 -123 -135
-37 -114 -28 -665 12 -756 11 -25 25 -47 30 -51 6 -4 3 13 -7 36 -10 24 -22
71 -25 105 -6 56 -5 62 9 56 13 -4 14 -7 3 -14 -10 -6 -10 -11 -1 -20 9 -9 13
-3 19 26 l7 37 61 -7 c33 -3 64 -11 67 -17 4 -6 12 -8 18 -4 12 8 86 -28 98
-47 4 -7 35 -23 68 -36 33 -12 73 -29 90 -37 21 -11 31 -12 33 -4 3 7 12 6 28
-5 14 -9 33 -13 44 -10 12 4 20 2 20 -5 0 -5 16 -26 35 -44 41 -40 46 -73 13
-80 -13 -3 -32 -7 -43 -9 -11 -3 39 -5 111 -6 163 -1 222 14 276 70 63 66 68
99 68 455 0 350 -5 385 -67 449 -56 58 -89 66 -283 76 -200 9 -261 9 -415 -1z
m639 -125 c34 -32 35 -77 1 -110 -68 -69 -179 27 -117 101 34 41 78 44 116 9z
m-262 -98 c71 -32 133 -94 167 -166 22 -47 26 -70 26 -141 0 -73 -4 -93 -28
-141 -15 -31 -48 -76 -73 -99 -140 -129 -337 -127 -469 4 -59 59 -86 122 -92
212 -19 257 238 438 469 331z"/>
<path d="M1036 144896 c-56 -21 -87 -47 -113 -92 -50 -88 -38 -190 31 -258 63
-63 142 -81 227 -51 57 20 92 55 119 118 44 102 -1 221 -103 273 -42 22 -116
26 -161 10z"/>
<path d="M1780 142721 c-188 -7 -212 -15 -258 -83 l-27 -41 -1 -256 c-1 -141
0 -244 3 -229 3 17 12 28 27 32 12 3 28 16 34 28 7 13 11 16 11 8 -3 -38 1
-44 16 -24 11 14 14 51 15 155 0 151 12 204 57 251 41 43 82 51 268 52 164 1
172 0 214 -24 24 -14 52 -36 63 -50 25 -35 38 -115 38 -240 0 -125 -13 -205
-39 -240 -26 -36 -92 -79 -111 -72 -13 5 -13 4 0 -12 8 -11 16 -14 18 -7 5 16
19 13 19 -4 0 -8 -7 -15 -16 -16 -11 0 -9 -4 7 -11 12 -6 25 -22 29 -36 5 -21
10 -23 39 -19 51 9 84 28 118 70 l31 39 0 308 0 308 -31 39 c-49 62 -83 73
-230 76 -71 2 -203 1 -294 -2z"/>
<path d="M1725 142539 c-46 -23 -57 -54 -62 -178 -6 -120 0 -177 17 -166 5 3
13 -3 19 -12 6 -10 11 -13 11 -6 0 9 8 9 33 1 17 -6 37 -15 44 -20 7 -5 17 -7
23 -3 6 4 -2 22 -21 45 -26 33 -32 48 -33 93 -2 172 204 232 301 88 46 -68 19
-177 -55 -223 -27 -17 -45 -20 -102 -16 -41 2 -64 0 -55 -5 9 -4 33 -9 55 -9
22 0 43 -4 46 -9 3 -5 -1 -7 -8 -6 -7 2 -10 2 -5 0 4 -3 5 -8 2 -13 -3 -4 3
-6 13 -3 11 2 26 -3 35 -11 8 -9 20 -16 26 -16 6 0 11 -4 11 -10 0 -16 73 -12
98 6 45 31 52 62 52 233 0 88 -4 171 -10 185 -5 14 -24 35 -42 46 -30 18 -50
20 -203 19 -93 0 -179 -5 -190 -10z"/>
<path d="M1849 142371 c-23 -23 -29 -38 -29 -71 0 -76 69 -119 144 -90 50 19
72 104 38 146 -42 53 -109 59 -153 15z"/>
<path d="M615 140768 c-193 -36 -368 -215 -404 -412 -15 -80 -15 -872 0 -952
36 -202 211 -377 413 -413 36 -7 222 -11 476 -11 254 0 440 4 476 11 202 36
377 211 413 413 15 80 15 872 0 952 -36 202 -211 377 -413 413 -74 14 -890 13
-961 -1z m1021 -161 c77 -36 154 -113 191 -192 l28 -60 0 -475 0 -475 -28 -61
c-36 -77 -113 -154 -192 -191 l-60 -28 -475 0 -475 0 -60 28 c-79 37 -156 114
-192 191 l-28 61 0 475 0 475 28 60 c32 69 104 147 162 177 89 47 95 47 580
45 l460 -2 61 -28z"/>
<path d="M1549 140471 c-64 -65 -20 -171 71 -171 33 0 48 6 71 29 64 65 20
171 -71 171 -33 0 -48 -6 -71 -29z"/>
<path d="M943 140336 c-154 -57 -252 -159 -304 -313 -18 -54 -21 -82 -17 -166
3 -93 7 -109 42 -180 50 -105 128 -183 233 -234 78 -38 78 -38 203 -38 125 0
125 0 203 38 105 51 183 129 234 234 38 78 38 78 38 203 0 124 0 126 -37 200
-64 131 -149 207 -284 256 -90 33 -223 33 -311 0z m242 -121 c125 -32 220
-130 251 -258 29 -116 -5 -235 -92 -321 -86 -87 -205 -121 -321 -92 -128 31
-226 126 -258 251 -19 74 -19 96 0 170 31 119 128 218 245 249 72 19 103 19
175 1z"/>
<path d="M2780 140585 c-271 -60 -489 -267 -557 -530 -24 -95 -24 -265 0 -360
37 -142 136 -295 248 -383 140 -109 277 -157 454 -157 131 0 218 20 322 73
146 75 250 179 325 325 53 104 73 191 73 322 0 131 -20 218 -73 322 -96 186
-263 324 -457 378 -85 23 -254 28 -335 10z m470 -318 c30 -16 51 -37 67 -67
22 -42 23 -50 23 -325 0 -275 -1 -283 -23 -325 -16 -30 -37 -51 -67 -67 -42
-22 -50 -23 -325 -23 -275 0 -283 1 -325 23 -30 16 -51 37 -67 67 -22 42 -23
50 -23 325 0 275 1 283 23 325 16 30 37 51 67 67 42 22 50 23 325 23 275 0
283 -1 325 -23z"/>
<path d="M3100 140120 l0 -70 70 0 70 0 0 70 0 70 -70 0 -70 0 0 -70z"/>
<path d="M2861 140003 c-96 -50 -106 -182 -20 -246 38 -28 106 -32 148 -10 96
50 106 182 20 246 -38 28 -106 32 -148 10z"/>
<path d="M2592 139775 c4 -253 -29 -230 333 -230 362 0 329 -23 333 230 l3
185 -59 0 -60 0 5 -59 c7 -73 -9 -122 -56 -174 -45 -51 -102 -77 -166 -77 -64
0 -121 26 -166 77 -47 52 -63 101 -56 174 l5 59 -60 0 -59 0 3 -185z"/>
<path d="M294 138121 c-68 -42 -64 17 -64 -854 0 -712 2 -792 16 -817 38 -63
-6 -60 854 -60 860 0 816 -3 854 60 14 25 16 105 16 818 0 785 0 789 -21 816
-46 58 -9 56 -851 56 -743 0 -774 -1 -804 -19z m1136 -211 c89 -14 180 -60
229 -116 62 -70 81 -135 93 -304 11 -161 3 -517 -14 -595 -16 -76 -51 -137
-108 -188 -81 -73 -133 -88 -348 -97 -263 -11 -531 2 -604 29 -70 27 -145 93
-180 158 -44 82 -51 143 -51 468 1 326 9 398 58 481 48 82 146 145 255 163 77
12 591 13 670 1z"/>
<path d="M770 137789 c-100 -17 -169 -84 -190 -184 -15 -72 -21 -441 -10 -582
10 -130 29 -183 82 -229 65 -57 80 -59 458 -59 337 0 346 1 386 22 61 32 111
95 124 157 17 74 24 480 11 609 -7 69 -18 121 -31 146 -23 47 -82 97 -130 113
-44 14 -623 20 -700 7z m739 -125 c27 -35 26 -66 -2 -100 -17 -20 -33 -27 -57
-27 -24 0 -40 7 -57 27 -28 34 -29 65 -2 100 16 20 29 26 59 26 30 0 43 -6 59
-26z m-288 -87 c107 -45 176 -124 205 -236 20 -82 12 -151 -27 -230 -101 -202
-374 -246 -534 -86 -93 94 -124 230 -79 354 21 60 97 152 148 178 92 48 199
56 287 20z"/>
<path d="M1003 137455 c-80 -40 -131 -134 -119 -218 16 -103 94 -178 195 -185
107 -8 180 36 221 130 78 182 -118 362 -297 273z"/>
<path d="M2535 137871 c-73 -35 -125 -88 -159 -161 l-26 -55 0 -322 c0 -301 1
-326 21 -377 26 -70 92 -139 167 -174 l57 -27 330 0 330 0 56 26 c69 33 127
89 160 155 24 48 24 53 27 382 l3 334 -26 56 c-34 75 -86 128 -160 163 l-60
29 -330 0 -330 0 -60 -29z m761 -113 c21 -15 50 -44 64 -65 l25 -36 3 -311 c3
-352 0 -370 -69 -429 -62 -53 -88 -57 -394 -57 -302 0 -331 4 -391 53 -71 59
-74 74 -74 415 0 333 1 342 61 401 60 61 62 61 415 58 l321 -2 39 -27z"/>
<path d="M2845 137617 c-140 -47 -219 -152 -219 -292 1 -112 56 -205 155 -260
49 -27 63 -30 144 -30 81 0 95 3 144 30 176 97 210 334 68 473 -76 75 -202
109 -292 79z m172 -124 c69 -36 111 -126 94 -203 -11 -52 -31 -82 -78 -117
-32 -25 -45 -28 -109 -28 -66 0 -76 3 -111 31 -54 44 -76 86 -76 147 -2 150
146 239 280 170z"/>
<path d="M2200 136545 l0 -55 725 0 725 0 0 55 0 55 -725 0 -725 0 0 -55z"/>
<path d="M445 135622 c-72 -31 -101 -50 -142 -95 -99 -107 -103 -129 -103
-626 0 -390 1 -413 18 -406 69 30 107 37 192 39 l95 1 0 285 0 285 33 68 c39
79 97 129 181 155 82 25 500 25 582 0 67 -21 117 -58 157 -118 46 -67 53 -108
59 -310 11 -358 -26 -463 -187 -544 -64 -32 -68 -35 -51 -50 10 -9 21 -13 25
-9 4 4 4 0 0 -10 -3 -10 -1 -17 5 -17 6 0 15 -10 20 -22 5 -13 15 -36 22 -53
7 -16 11 -35 10 -42 -5 -30 150 -103 175 -82 10 9 18 9 28 0 35 -29 154 63
207 161 l34 63 0 540 0 540 -27 57 c-34 73 -103 142 -176 176 l-57 27 -530 2
c-482 2 -534 1 -570 -15z"/>
<path d="M2512 135335 c-97 -30 -171 -111 -192 -208 -8 -34 -10 -144 -8 -317
3 -245 5 -268 24 -311 27 -58 85 -116 143 -143 44 -20 61 -21 346 -21 285 0
302 1 346 21 58 27 116 85 143 143 20 44 21 61 21 341 0 280 -1 297 -21 341
-27 58 -85 116 -143 143 -43 20 -64 21 -331 23 -219 2 -295 -1 -328 -12z m626
-80 c49 -21 81 -52 103 -100 17 -36 19 -69 19 -315 0 -246 -2 -279 -19 -315
-22 -48 -54 -79 -103 -100 -31 -12 -87 -15 -315 -15 -249 0 -282 2 -318 19
-48 22 -79 54 -100 103 -22 55 -22 561 0 616 21 49 52 81 100 103 36 17 69 19
318 19 228 0 284 -3 315 -15z"/>
<path d="M2750 135101 c-112 -37 -200 -151 -200 -261 0 -56 31 -132 73 -177
63 -69 107 -88 202 -88 95 0 139 19 202 88 42 45 73 121 73 177 0 90 -69 199
-155 242 -43 23 -152 33 -195 19z m171 -91 c21 -11 51 -39 66 -62 24 -35 28
-52 28 -108 0 -56 -4 -73 -28 -108 -102 -155 -342 -90 -355 96 -10 157 146
255 289 182z"/>
<path d="M765 135229 c-55 -13 -100 -46 -127 -94 -22 -38 -23 -52 -26 -260 -4
-243 6 -324 40 -333 10 -2 17 -10 15 -17 -3 -7 3 -11 16 -10 11 1 22 6 24 12
2 6 37 3 96 -8 51 -10 115 -18 144 -18 28 -1 54 -5 58 -10 3 -5 30 -15 60 -21
35 -7 53 -15 49 -22 -5 -8 16 -9 70 -4 91 8 111 15 155 52 57 48 64 77 69 294
7 305 -13 376 -117 423 -42 20 -66 22 -266 24 -121 1 -238 -2 -260 -8z m345
-155 c69 -32 96 -56 127 -117 52 -103 37 -211 -41 -295 -53 -58 -110 -82 -191
-82 -187 0 -311 196 -231 365 63 132 208 189 336 129z"/>
<path d="M940 134972 c-19 -10 -46 -34 -58 -53 -32 -47 -28 -136 9 -175 77
-82 200 -70 250 26 11 19 19 47 19 62 0 44 -30 106 -61 129 -42 30 -116 35
-159 11z"/>
<path d="M2498 133131 c-110 -36 -189 -107 -230 -210 -22 -54 -23 -70 -26
-391 -3 -317 1 -417 16 -393 9 13 121 55 132 48 4 -3 11 3 14 12 5 13 9 14 15
5 8 -14 21 256 21 451 0 65 5 127 10 138 26 47 43 49 470 49 427 0 444 -2 470
-49 6 -12 10 -135 10 -326 l0 -307 -29 -29 c-28 -28 -33 -29 -121 -29 l-91 0
12 -22 c7 -13 15 -25 19 -28 4 -3 15 -30 25 -60 10 -30 21 -59 25 -65 3 -5 13
-36 20 -69 l14 -58 39 5 c102 14 216 108 259 215 22 55 23 68 26 425 3 310 1
377 -13 429 -29 115 -108 207 -217 251 -51 21 -69 22 -433 24 -346 2 -385 1
-437 -16z"/>
<path d="M985 133075 c-151 -33 -268 -104 -374 -227 l-32 -37 61 -61 c33 -33
65 -60 70 -60 5 0 16 15 24 34 8 18 31 46 52 62 l37 29 286 3 c241 3 291 1
327 -13 48 -18 77 -47 93 -94 15 -45 15 -568 0 -608 -5 -15 -22 -40 -36 -55
-22 -23 -24 -30 -13 -43 7 -8 19 -15 26 -15 8 0 14 -8 14 -17 0 -9 10 -27 22
-40 12 -13 17 -23 11 -23 -6 0 -13 6 -16 13 -2 6 -7 10 -10 7 -3 -3 1 -14 9
-25 14 -19 16 -19 25 -2 6 9 14 15 19 12 17 -10 120 117 160 198 114 233 86
502 -74 714 -151 199 -434 302 -681 248z"/>
<path d="M2517 132753 c-9 -9 -7 -481 3 -518 4 -16 8 -25 9 -19 0 6 7 11 14
11 6 0 58 3 115 6 74 4 101 3 96 -5 -5 -8 -1 -9 12 -3 10 4 30 7 44 7 19 -1
14 3 -20 19 -84 38 -127 100 -137 195 -11 106 66 207 177 234 137 33 269 -74
270 -218 0 -95 -51 -174 -140 -215 -40 -18 -42 -21 -20 -24 33 -4 102 -25 115
-34 6 -3 64 -10 131 -14 99 -5 122 -4 132 8 9 11 12 87 10 293 l-3 279 -401 3
c-220 1 -403 -1 -407 -5z"/>
<path d="M1310 132655 l0 -65 65 0 65 0 0 65 0 65 -65 0 -65 0 0 -65z"/>
<path d="M2802 132590 c-43 -27 -72 -76 -72 -125 0 -186 272 -202 297 -17 4
33 0 50 -20 85 -43 74 -135 99 -205 57z"/>
<path d="M1083 132539 c-36 -11 -83 -61 -83 -90 0 -11 5 -17 10 -14 6 4 10 -8
11 -27 1 -18 3 -25 6 -15 4 14 8 16 19 6 8 -6 14 -17 14 -23 0 -6 23 -26 50
-45 28 -19 50 -38 50 -42 0 -4 10 -5 23 -2 80 20 112 147 53 212 -23 26 -76
51 -103 50 -10 0 -32 -5 -50 -10z"/>
<path d="M1346 132463 c3 -16 7 -33 9 -39 7 -23 -16 -110 -38 -141 -12 -19
-42 -48 -67 -65 -25 -17 -37 -28 -27 -24 20 6 77 -19 77 -34 0 -6 4 -10 9 -10
6 0 25 -13 43 -30 39 -36 38 -36 72 -9 l26 20 0 180 0 179 -55 0 c-55 0 -55 0
-49 -27z"/>
<path d="M1480 130562 c0 -12 -54 -29 -74 -24 -4 2 -13 -1 -20 -6 -6 -5 -29
-15 -51 -22 -22 -7 -44 -16 -50 -20 -5 -4 -35 -15 -65 -25 -30 -10 -59 -21
-65 -25 -5 -4 -48 -20 -95 -36 -47 -15 -87 -31 -90 -35 -3 -4 -33 -15 -67 -24
-35 -10 -63 -21 -63 -25 0 -5 -16 -7 -35 -6 -19 2 -33 -1 -32 -7 1 -5 -4 -12
-12 -15 -9 -3 -11 0 -6 8 6 10 4 12 -9 7 -10 -4 -23 -7 -29 -8 -7 0 -4 -4 6
-8 18 -7 18 -8 1 -21 -11 -9 -15 -10 -10 -2 15 25 -45 9 -126 -34 -14 -8 -36
-14 -47 -14 -12 0 -21 -4 -21 -9 0 -5 -13 -11 -30 -14 -16 -4 -50 -16 -74 -27
-25 -11 -53 -20 -63 -20 -10 0 -28 -7 -40 -15 -16 -11 -24 -12 -29 -4 -16 27
-65 -146 -79 -281 -14 -135 28 -330 102 -471 108 -210 333 -388 568 -451 114
-30 336 -30 448 0 254 69 468 244 582 477 66 133 87 224 88 380 3 248 -69 441
-229 613 -73 80 -187 167 -204 157 -6 -4 -9 -1 -8 6 2 9 -10 13 -34 13 -25 1
-38 -4 -38 -12z m-85 -282 c64 -32 134 -102 165 -165 25 -49 25 -53 25 -315 0
-259 -1 -266 -24 -313 -33 -67 -101 -134 -169 -165 -57 -27 -58 -27 -292 -27
-234 0 -235 0 -292 27 -68 31 -136 98 -169 165 -23 46 -24 58 -27 305 l-3 258
27 60 c18 41 45 77 82 111 92 84 111 88 397 86 223 -2 231 -3 280 -27z"/>
<path d="M835 130201 c-22 -10 -55 -33 -74 -52 -61 -62 -65 -80 -69 -330 -2
-141 0 -241 7 -266 17 -61 64 -119 123 -150 l53 -28 225 0 c222 0 226 0 275
26 56 29 109 91 125 147 16 58 13 449 -4 506 -20 67 -61 114 -120 142 -49 23
-60 24 -276 24 -196 0 -230 -3 -265 -19z m372 -173 c51 -24 117 -96 134 -145
19 -57 7 -161 -24 -210 -109 -173 -355 -161 -446 22 -19 39 -23 58 -19 120 3
62 8 80 33 116 83 117 203 153 322 97z"/>
<path d="M1025 129956 c-42 -18 -83 -69 -91 -112 -9 -50 1 -113 23 -143 40
-52 70 -66 143 -66 54 0 75 4 96 21 55 41 69 70 69 144 0 74 -14 103 -68 144
-34 25 -129 32 -172 12z"/>
<path d="M2450 130463 c-60 -10 -91 -27 -133 -72 -67 -72 -69 -84 -65 -623 3
-513 2 -499 72 -569 60 -60 80 -64 301 -61 110 1 207 4 215 7 9 3 23 17 32 32
9 16 39 51 67 79 l51 52 -178 6 c-97 4 -192 9 -209 12 -46 7 -112 61 -140 114
l-24 45 3 326 3 326 28 41 c15 23 46 54 69 69 l41 28 316 3 c198 2 329 -1 351
-7 49 -15 105 -64 129 -113 16 -35 21 -72 27 -209 l7 -166 49 51 c27 28 64 67
83 86 l34 36 2 169 c3 189 -2 214 -60 271 -70 71 -54 69 -576 70 -258 1 -481
0 -495 -3z"/>
<path d="M2592 130203 c-18 -9 -45 -32 -60 -51 l-27 -35 -3 -304 c-3 -340 -2
-349 66 -401 l35 -27 224 -3 223 -3 26 31 c15 17 42 46 60 66 19 19 34 40 34
46 0 6 3 9 6 6 3 -3 26 17 52 46 26 28 50 53 55 54 4 2 15 18 23 34 13 24 18
28 25 17 6 -9 8 73 7 212 l-3 226 -27 35 c-50 66 -62 68 -390 68 -251 0 -298
-3 -326 -17z m443 -114 c152 -57 229 -229 179 -399 -21 -71 -107 -159 -178
-183 -211 -72 -426 76 -426 293 0 220 217 367 425 289z"/>
<path d="M2815 130018 c-56 -29 -83 -56 -111 -110 -46 -90 -24 -219 48 -284
119 -109 311 -75 383 66 47 92 26 221 -47 286 -71 65 -193 84 -273 42z"/>
<path d="M2557 127989 c-20 -11 -49 -38 -65 -61 l-27 -41 -3 -321 c-3 -344 0
-373 45 -427 56 -66 73 -69 419 -69 212 0 322 4 345 12 52 18 87 48 109 94 20
40 21 57 18 382 l-3 340 -30 38 c-61 74 -59 74 -435 74 -314 -1 -337 -2 -373
-21z m741 -29 c18 -11 41 -34 52 -52 19 -31 20 -51 20 -364 0 -327 0 -331 -22
-364 -13 -18 -36 -43 -51 -54 -28 -20 -39 -21 -366 -21 l-338 0 -37 29 c-64
49 -66 58 -66 411 0 294 1 318 20 354 10 21 34 48 52 60 32 20 44 21 368 21
317 0 337 -1 368 -20z"/>
<path d="M2614 127921 c-17 -10 -42 -34 -55 -53 -24 -33 -24 -36 -27 -311 -3
-267 -2 -280 18 -322 13 -27 36 -53 58 -67 36 -23 42 -23 322 -23 316 0 325 2
372 67 22 31 23 42 24 203 l1 170 -6 -160 c-7 -181 -18 -215 -81 -248 -32 -16
-64 -17 -322 -15 l-288 3 -37 38 -38 37 -3 290 c-3 320 -2 327 60 372 32 22
41 23 303 28 l270 6 -270 2 c-250 2 -272 0 -301 -17z"/>
<path d="M2803 127761 c-77 -20 -93 -57 -93 -213 0 -104 3 -128 20 -155 31
-52 52 -58 195 -58 143 0 164 6 195 58 17 27 20 51 20 157 0 135 -12 174 -62
201 -27 15 -228 22 -275 10z m268 -27 c45 -23 59 -67 59 -184 0 -178 -23 -200
-205 -200 -182 0 -205 22 -205 198 0 180 22 202 203 202 88 0 126 -4 148 -16z"/>
<path d="M2844 127626 c-28 -28 -34 -42 -34 -76 0 -34 6 -48 34 -76 29 -29 41
-34 80 -34 36 0 52 6 78 29 29 26 33 35 33 81 0 46 -4 55 -33 81 -26 23 -42
29 -78 29 -39 0 -51 -5 -80 -34z m135 8 c13 -9 29 -32 37 -50 12 -29 12 -39 0
-68 -17 -41 -51 -66 -91 -66 -40 0 -74 25 -91 66 -12 29 -12 39 0 68 17 41 51
66 91 66 17 0 41 -7 54 -16z"/>
<path d="M345 127961 c-28 -12 -62 -50 -74 -84 -6 -16 -11 -86 -11 -157 0
-154 13 -198 69 -232 33 -21 47 -23 186 -23 132 0 154 2 183 20 56 34 72 83
72 226 0 145 -9 185 -51 225 l-30 29 -162 2 c-89 1 -171 -1 -182 -6z m315 -44
c52 -18 60 -43 60 -204 0 -136 -1 -143 -24 -170 l-24 -28 -157 0 -157 0 -24
28 c-23 27 -24 34 -24 173 0 85 4 154 11 165 19 36 66 48 189 48 63 0 131 -5
150 -12z"/>
<path d="M464 127841 c-29 -13 -74 -68 -76 -94 -4 -65 14 -111 57 -137 63 -39
160 -14 183 48 20 53 21 61 11 94 -14 51 -59 90 -111 94 -24 2 -52 0 -64 -5z
m111 -66 c52 -51 14 -139 -60 -139 -29 0 -43 7 -61 28 -49 56 -13 136 61 136
25 0 44 -8 60 -25z"/>
<path d="M1524 127951 c-17 -11 -36 -34 -43 -52 -12 -35 -14 -144 -4 -227 5
-47 8 -53 27 -50 19 3 21 11 27 109 9 162 28 179 195 179 170 0 189 -20 189
-195 0 -125 -12 -156 -68 -180 -18 -8 -26 -14 -19 -15 7 0 11 -3 8 -8 -2 -4 2
-16 10 -26 12 -17 19 -18 50 -10 22 5 46 21 58 37 19 26 21 41 21 206 0 193
-7 221 -61 241 -14 6 -100 10 -192 10 -146 0 -171 -2 -198 -19z"/>
<path d="M1595 127850 c-12 -14 -20 -41 -23 -80 -5 -71 5 -140 18 -120 7 11
12 11 23 2 7 -7 17 -9 20 -5 4 3 7 1 7 -5 0 -7 4 -12 9 -12 5 0 0 18 -11 40
-19 37 -19 44 -6 78 17 46 71 79 112 68 44 -11 76 -49 76 -91 0 -63 -32 -104
-85 -105 -29 -1 -29 -2 -7 -12 12 -6 22 -17 22 -25 0 -9 14 -13 43 -13 71 0
82 20 82 150 0 149 -1 150 -150 150 -100 0 -114 -2 -130 -20z"/>
<path d="M1391 126249 c-162 -32 -313 -176 -357 -343 -11 -40 -14 -159 -14
-551 0 -392 3 -511 14 -551 45 -171 195 -312 365 -344 32 -6 247 -10 526 -10
279 0 494 4 526 10 170 32 320 173 365 344 20 74 20 1028 0 1102 -45 171 -195
312 -365 344 -65 12 -996 12 -1060 -1z m1082 -165 c64 -22 140 -92 174 -162
l28 -57 0 -510 c0 -500 0 -511 -21 -556 -27 -59 -85 -123 -138 -154 -70 -40
-134 -45 -591 -45 -265 0 -454 4 -491 11 -74 13 -131 46 -182 104 -77 88 -76
81 -80 613 -3 513 0 547 52 630 33 52 99 108 150 126 64 23 1032 23 1099 0z"/>
<path d="M2390 125953 c-86 -34 -88 -154 -3 -189 67 -28 130 9 140 84 4 33 1
44 -23 71 -29 32 -81 47 -114 34z"/>
<path d="M1813 125791 c-67 -17 -150 -67 -206 -123 -216 -215 -154 -579 121
-716 68 -33 84 -37 172 -40 112 -5 188 12 260 58 151 97 239 282 212 447 -25
148 -118 275 -249 340 -68 34 -81 37 -176 39 -56 2 -116 -1 -134 -5z m256
-163 c278 -141 193 -557 -119 -585 -207 -19 -384 191 -327 388 59 201 262 291
446 197z"/>
<path d="M200 123130 l0 -700 900 0 900 0 0 700 0 700 -900 0 -900 0 0 -700z"/>
<path d="M2200 123130 l0 -700 725 0 725 0 0 700 0 700 -725 0 -725 0 0 -700z"/>
<path d="M2200 120830 l0 -980 725 0 725 0 0 980 0 980 -725 0 -725 0 0 -980z"/>
<path d="M200 115655 l0 -975 900 0 900 0 0 975 0 975 -900 0 -900 0 0 -975z"/>
<path d="M2200 115655 l0 -975 725 0 725 0 0 975 0 975 -725 0 -725 0 0 -975z"/>
<path d="M200 106995 l0 -815 1725 0 1725 0 0 815 0 815 -1725 0 -1725 0 0
-815z"/>
<path d="M200 104570 l0 -990 745 0 745 0 0 990 0 990 -745 0 -745 0 0 -990z"/>
<path d="M200 102205 l0 -755 1725 0 1725 0 0 755 0 755 -1725 0 -1725 0 0
-755z"/>
<path d="M200 100115 l0 -715 1725 0 1725 0 0 715 0 715 -1725 0 -1725 0 0
-715z"/>
<path d="M2200 98005 l0 -775 725 0 725 0 0 775 0 775 -725 0 -725 0 0 -775z"/>
<path d="M2050 95620 l0 -990 800 0 800 0 0 990 0 990 -800 0 -800 0 0 -990z"/>
<path d="M200 93170 l0 -840 820 0 820 0 0 840 0 840 -820 0 -820 0 0 -840z"/>
<path d="M2040 93170 l0 -840 805 0 805 0 0 840 0 840 -805 0 -805 0 0 -840z"/>
<path d="M200 85790 l0 -690 725 0 725 0 0 690 0 690 -725 0 -725 0 0 -690z"/>
<path d="M200 83490 l0 -990 900 0 900 0 0 990 0 990 -900 0 -900 0 0 -990z"/>
<path d="M2200 83490 l0 -990 725 0 725 0 0 990 0 990 -725 0 -725 0 0 -990z"/>
<path d="M200 78495 l0 -785 840 0 840 0 0 785 0 785 -840 0 -840 0 0 -785z"/>
<path d="M200 69110 l0 -870 835 0 835 0 0 870 0 870 -835 0 -835 0 0 -870z"/>
<path d="M2070 69110 l0 -870 790 0 790 0 0 870 0 870 -790 0 -790 0 0 -870z"/>
<path d="M200 66630 l0 -990 900 0 900 0 0 990 0 990 -900 0 -900 0 0 -990z"/>
<path d="M200 57135 l0 -745 900 0 900 0 0 745 0 745 -900 0 -900 0 0 -745z"/>
<path d="M2200 57135 l0 -745 725 0 725 0 0 745 0 745 -725 0 -725 0 0 -745z"/>
<path d="M200 52150 l0 -1020 1725 0 1725 0 0 1020 0 1020 -1725 0 -1725 0 0
-1020z"/>
<path d="M200 47135 l0 -775 835 0 835 0 0 775 0 775 -835 0 -835 0 0 -775z"/>
<path d="M200 44750 l0 -990 900 0 900 0 0 990 0 990 -900 0 -900 0 0 -990z"/>
<path d="M1960 42150 l0 -990 845 0 845 0 0 990 0 990 -845 0 -845 0 0 -990z"/>
<path d="M200 36950 l0 -990 1725 0 1725 0 0 990 0 990 -1725 0 -1725 0 0
-990z"/>
<path d="M200 34445 l0 -895 850 0 850 0 0 895 0 895 -850 0 -850 0 0 -895z"/>
<path d="M2100 34445 l0 -895 775 0 775 0 0 895 0 895 -775 0 -775 0 0 -895z"/>
<path d="M2020 32250 l0 -680 815 0 815 0 0 680 0 680 -815 0 -815 0 0 -680z"/>
<path d="M200 29945 l0 -1005 900 0 900 0 0 1005 0 1005 -900 0 -900 0 0
-1005z"/>
<path d="M1850 27330 l0 -990 900 0 900 0 0 990 0 990 -900 0 -900 0 0 -990z"/>
<path d="M200 24730 l0 -990 1725 0 1725 0 0 990 0 990 -1725 0 -1725 0 0
-990z"/>
<path d="M200 19745 l0 -775 880 0 880 0 0 775 0 775 -880 0 -880 0 0 -775z"/>
<path d="M1850 12450 l0 -990 900 0 900 0 0 990 0 990 -900 0 -900 0 0 -990z"/>
<path d="M1950 7465 l0 -775 850 0 850 0 0 775 0 775 -850 0 -850 0 0 -775z"/>
<path d="M200 5060 l0 -1010 1725 0 1725 0 0 1010 0 1010 -1725 0 -1725 0 0
-1010z"/>
</g>
</svg>
